<svg width="52" height="52" fill="#262626" viewBox="0 0 24 24" xmlns="http://www.w3.org/2000/svg">
  <path d="M12 5.531A1.031 1.031 0 0 1 10.969 4.5V2.25a1.031 1.031 0 1 1 2.062 0V4.5A1.031 1.031 0 0 1 12 5.531Z"></path>
  <path d="M12 22.781a1.031 1.031 0 0 1-1.031-1.031V19.5a1.031 1.031 0 1 1 2.062 0v2.25A1.031 1.031 0 0 1 12 22.781Z"></path>
  <path d="M17.303 7.73a1.032 1.032 0 0 1-.73-1.76l1.591-1.592a1.031 1.031 0 0 1 1.458 1.459l-1.59 1.59a1.027 1.027 0 0 1-.73.303Z"></path>
  <path d="M5.105 19.929a1.03 1.03 0 0 1-.729-1.76l1.591-1.592a1.031 1.031 0 1 1 1.459 1.459l-1.591 1.59a1.03 1.03 0 0 1-.73.303Z"></path>
  <path d="M21.75 13.031H19.5a1.031 1.031 0 1 1 0-2.062h2.25a1.031 1.031 0 1 1 0 2.062Z"></path>
  <path d="M4.5 13.031H2.25a1.031 1.031 0 1 1 0-2.062H4.5a1.031 1.031 0 1 1 0 2.062Z"></path>
  <path d="M18.894 19.925a1.027 1.027 0 0 1-.73-.302l-1.59-1.591a1.03 1.03 0 0 1 1.458-1.458l1.591 1.59a1.031 1.031 0 0 1-.729 1.761Z"></path>
  <path d="M6.696 7.73a1.026 1.026 0 0 1-.729-.302l-1.59-1.591a1.031 1.031 0 0 1 1.458-1.459l1.59 1.591a1.031 1.031 0 0 1-.729 1.76Z"></path>
  <path d="M12 16.781A4.782 4.782 0 1 1 16.781 12 4.787 4.787 0 0 1 12 16.781Z"></path>
</svg>